<?xml version="1.0" encoding="utf-8" ?>
<svg xmlns="http://www.w3.org/2000/svg" xmlns:xlink="http://www.w3.org/1999/xlink" width="924" height="924">
	<path fill="white" transform="matrix(2.72566 0 0 2.72566 0 3.05176e-05)" d="M126.223 38.7596C130.835 39.2566 135.685 39.0083 140.331 39.0233L166.419 39.0203L247.022 39.0589Q276.141 39.3284 305.261 39.2164L321.117 39.2686C324.241 39.2796 327.647 39.5563 330.727 39.0271C328.624 43.1613 326.14 47.1716 323.845 51.2054Q318.176 61.2721 312.402 71.2786C308.703 70.7791 304.724 71.0004 300.99 70.995L281.142 70.9635L218.382 70.5062C207.566 70.4474 195.892 70.9464 185.155 70.2542C188.43 74.7038 191.041 79.9268 193.818 84.7212C195.627 87.8432 197.95 91.1333 199.269 94.4831Q229.477 94.311 259.683 94.6847C258.585 95.9393 257.805 97.2029 257.027 98.6677C251.791 107.981 246.687 117.388 241.255 126.589C236.985 126.441 232.71 126.157 228.44 126.065C224.545 125.981 220.269 126.438 216.476 125.581C218.238 128.29 219.727 131.226 221.296 134.053L229.212 148.265C235.725 159.902 242.537 171.435 248.718 183.247C246.109 186.873 243.951 191.759 241.781 195.721C238.017 202.597 233.779 209.515 230.572 216.657C228.87 212.566 224.69 206.256 222.335 202.248L204.756 172.447L144.31 69.9308L132.264 49.5546C130.488 46.5585 127.129 41.9311 126.223 38.7596Z"/>
	<path fill="white" transform="matrix(2.72566 0 0 2.72566 0 3.05176e-05)" d="M12.3355 38.9319C15.883 39.162 19.5075 39.0391 23.0655 39.0445L41.9857 39.048L69.375 39.2704Q85.1508 39.2364 100.926 39.3708C103.394 42.8114 105.498 46.6641 107.701 50.2828L120.215 70.9222C115.277 70.391 109.98 70.8371 105.015 70.9079C94.223 71.0617 83.4141 71.4117 72.6265 71.4893C75.5193 74.5531 79.0756 81.9402 81.3246 85.8598L96.8491 112.808L146.769 199.465Q156.208 216.167 165.904 232.721C168.747 237.593 171.469 242.581 174.496 247.34C175.59 246.8 196.417 209.764 199.145 204.992C200.683 205.853 213.239 228.893 215.322 232.357C216.336 234.2 217.319 236.05 218.535 237.77L185.324 296.129C182.015 301.928 178.717 307.711 175.541 313.581C174.704 315.126 173.338 316.718 172.814 318.382C172.698 318.749 172.636 318.954 172.366 319.248C169.411 313.65 166.072 308.185 162.93 302.685L145.864 272.719L96.955 186.987L42.1791 91.003C32.2773 73.6428 22.6526 56.0446 12.3355 38.9319Z"/>
</svg>
